# xmcd
#
# Track frame offsets:
#	150
#	8906
#	16503
#	21296
#	27957
#	32690
#	38631
#	44224
#	48420
#	54006
#	57497
#	71298
#	86636
#	96653
#	99782
#	113238
#	116248
#	128655
#	134601
#	137502
#	142244
#	150457
#	157629
#	159927
#	177825
#	179133
#	188280
#	204704
#	213290
#	221511
#	227249
#	242484
#	257697
#	276909
#	280712
#	288788
#	296848
#	305627
#	317151
#	329346
#
# Disc length: 4491 seconds
#
# Revision: 2
# Processed by: cddbd v1.5.2PL0 Copyright (c) Steve Scherf et al.
# Submitted via: EasyCDDAExtractor 11.0.2.1
#
DISCID=3e118928
DTITLE=Various Artist - Tweqit
DYEAR=2008
DGENRE=Electronic
TTITLE0=Jackson Five - Can You Feel It  (Intro … "There Once Was a Time...")
TTITLE1=Wagon Christ - The Funnies (I Will End You DlimitRMix)
TTITLE2=DJ DlimitR - "Hello, Hello, Hello" -  DJ DlimitR Intro (FLStudio Says 
TTITLE2=Hi)
TTITLE3=Meat Beat Manifesto - International Reprise Part 2
TTITLE4=Daft Punk - Da Funk (DlimitRMix Part 1)
TTITLE5=Mr. Oizo - Berleef (DlimitRMix Part 2)
TTITLE6=Jackson and His Computer Band - Tropical Metal
TTITLE7=The Prodigy - Molotov Bitch
TTITLE8=DJ Z-Trip - About Face (DlimitRMix)
TTITLE9=DJ DlimitR - A Discussion Between Danny McPots and Bill Maher
TTITLE10=Jamie Lidell - A Little Bit More (Luke Vibert Mix)
TTITLE11=Luke Vibert - Rotting Flesh Bags
TTITLE12=Cabbage Boy - Interstellar Love
TTITLE13=DJ DlimitR - Not Even Thirteen (And Androgynous) (DlimitRMix)
TTITLE14=Beck - Cell Phone's Dead (Mr. Ballistic Mix)
TTITLE15=Tipper - Jibber Jabber
TTITLE16=DJ DlimitR - Stumbling Upon: Turning A Beautification Machine Inside 
TTITLE16=Out (DlimitRMix)
TTITLE17=Tipper - Run 4 Cover
TTITLE18=Sugar Hill Gang - Apache (Jump On It) (From DJ Shadow and Cut Chemist's
TTITLE18=Hard Sell)
TTITLE19=David Bowie - Let's Dance (DlimitRMix Vs. Hard Sell)
TTITLE20=3rd Bass - Steppin' To The A.M. (DlimitRMix)
TTITLE21=Badly Drawn Boy - Four Leaf Clover (Reverse Reverb DlimitRMix)
TTITLE22=Muskat - Slishal No Ne Zapisal (KGW Shout-out DlimitRMix)
TTITLE23=Funkstörung - I Want Some Fun
TTITLE24=DJ DlimitR - Dance Like Tomorrow Is 9/11 ("Oh No, Terrorists!" Dlimit
TTITLE24=RMix)
TTITLE25=Bodyrox Feat. Lucuana - Yeah Yeah
TTITLE26=Plus and Minus - Rocking With The Best
TTITLE27=Mason - Exceeder
TTITLE28=Sonny J - Handsfree (If You Hold My Hand) (Heavyfeet Remix)
TTITLE29=Hardfloor - T2DaC (Dexter Remix vs. DlimitRMix)
TTITLE30=Erick Morillo - Jazz In Your Face
TTITLE31=The Prodigy - Smack My Bitch Up (DJ Зайкин Remix)
TTITLE32=Virus - Freaky Girl (DJ NuMark Remix)
TTITLE33=Daft Punk - Human Afterall (Sebastian Remix)
TTITLE34=Daft Punk - Prime Time of Your Life (Para One Remix)
TTITLE35=Benny Banassi - Who's Your Daddy?
TTITLE36=Guns N' Roses - Riad N' The Bedouins (Axl vs. Benny DlimitRMix)
TTITLE37=Hardfloor - Melorec
TTITLE38=Hardfloor - The Questions Remains
TTITLE39=DJ DlimitR - Word From The Ass Man (DJ DlimitR Outro)
EXTD=
EXTT0=
EXTT1=
EXTT2=
EXTT3=
EXTT4=
EXTT5=
EXTT6=
EXTT7=
EXTT8=
EXTT9=
EXTT10=
EXTT11=
EXTT12=
EXTT13=
EXTT14=
EXTT15=
EXTT16=
EXTT17=
EXTT18=
EXTT19=
EXTT20=
EXTT21=
EXTT22=
EXTT23=
EXTT24=
EXTT25=
EXTT26=
EXTT27=
EXTT28=
EXTT29=
EXTT30=
EXTT31=
EXTT32=
EXTT33=
EXTT34=
EXTT35=
EXTT36=
EXTT37=
EXTT38=
EXTT39=
PLAYORDER=
